<svg width="48.000000" height="48.000000" viewBox="0 0 48 48" fill="none" xmlns="http://www.w3.org/2000/svg" xmlns:xlink="http://www.w3.org/1999/xlink">
	<desc>
			Created with Pixso.
	</desc>
	<g clip-path="url(#clip14_2269)">
		<rect width="48.000000" height="48.000000" fill="#FFFFFF" fill-opacity="0.0078"/>
		<path d="M38.1421 38.1421C41.7614 34.5228 44 29.5228 44 24C44 18.4772 41.7614 13.4772 38.1421 9.85785C34.5228 6.23859 29.5228 4 24 4C18.4772 4 13.4772 6.23859 9.85785 9.85785C6.23859 13.4772 4 18.4772 4 24C4 29.5228 6.23859 34.5228 9.85785 38.1421C13.4772 41.7614 18.4772 44 24 44C29.5228 44 34.5228 41.7614 38.1421 38.1421L38.1421 38.1421Z" stroke="#E60965" stroke-width="3.000000" stroke-linejoin="round"/>
		<path d="M24 11C25.3807 11 26.5 12.1193 26.5 13.5C26.5 14.8807 25.3807 16 24 16C22.6193 16 21.5 14.8807 21.5 13.5C21.5 12.1193 22.6193 11 24 11L24 11Z" fill-rule="evenodd" fill="#E60965"/>
		<path d="M24.5 34L24.5 20L23.5 20L22.5 20" stroke="#E60965" stroke-width="3.000000" stroke-linejoin="round" stroke-linecap="round"/>
		<path d="M21 34L28 34" stroke="#E60965" stroke-width="3.000000" stroke-linejoin="round" stroke-linecap="round"/>
	</g>
	<defs>
		<clipPath id="clip14_2269">
			<rect width="48.000000" height="48.000000" fill="white"/>
		</clipPath>
	</defs>
</svg>
