<svg width="150" height="150" viewBox="0 0 150 150" fill="none" xmlns="http://www.w3.org/2000/svg">
<path d="M75 5C88.8447 5 102.378 9.10543 113.89 16.7971C125.401 24.4888 134.373 35.4213 139.672 48.2122C144.97 61.003 146.356 75.0777 143.655 88.6563C140.954 102.235 134.287 114.708 124.497 124.497C114.708 134.287 102.235 140.954 88.6563 143.655C75.0777 146.356 61.003 144.97 48.2122 139.672C35.4213 134.373 24.4888 125.401 16.7971 113.89C9.10543 102.378 5 88.8447 5 75" stroke="#C5C5C5" stroke-width="10" stroke-linecap="round"/>
<path d="M75 5C93.3367 5 110.941 12.195 124.029 25.0382C137.116 37.8814 144.642 55.3472 144.988 73.6806C145.333 92.014 138.471 109.751 125.877 123.078C113.283 136.406 95.962 144.259 77.6383 144.95" stroke="#FF3D00" stroke-width="10" stroke-linecap="round"/>
<path d="M75 20C85.878 20 96.5117 23.2257 105.556 29.2692C114.601 35.3126 121.651 43.9025 125.813 53.9524C129.976 64.0023 131.065 75.061 128.943 85.73C126.821 96.3989 121.583 106.199 113.891 113.891C106.199 121.583 96.3989 126.821 85.73 128.943C75.061 131.065 64.0023 129.976 53.9524 125.813C43.9025 121.651 35.3126 114.601 29.2692 105.556C23.2257 96.5117 20 85.878 20 75" stroke="#C5C5C5" stroke-width="10" stroke-linecap="round"/>
<path d="M75 20C83.6066 20 92.093 22.0198 99.7768 25.897C107.461 29.7741 114.127 35.4004 119.241 42.3233C124.354 49.2463 127.771 57.2726 129.218 65.7567C130.664 74.2409 130.099 82.9461 127.569 91.1722C125.038 99.3983 120.612 106.916 114.647 113.12C108.682 119.324 101.344 124.041 93.2236 126.893C85.1032 129.745 76.4269 130.651 67.8925 129.539C59.3581 128.427 51.2038 125.327 44.0854 120.489" stroke="#FFBC11" stroke-width="10" stroke-linecap="round"/>
<path d="M75 35C82.9113 35 90.6448 37.346 97.2228 41.7412C103.801 46.1365 108.928 52.3836 111.955 59.6927C114.983 67.0017 115.775 75.0444 114.231 82.8036C112.688 90.5629 108.878 97.6902 103.284 103.284C97.6902 108.878 90.5629 112.688 82.8036 114.231C75.0444 115.775 67.0017 114.983 59.6927 111.955C52.3836 108.928 46.1365 103.801 41.7412 97.2228C37.346 90.6448 35 82.9113 35 75" stroke="#C5C5C5" stroke-width="10" stroke-linecap="round"/>
<path d="M75 35C80.7821 35 86.4954 36.2535 91.7464 38.6743C96.9973 41.095 101.661 44.6253 105.416 49.0221C109.171 53.4188 111.929 58.5774 113.498 64.1424C115.068 69.7074 115.412 75.5465 114.508 81.2574C113.603 86.9683 111.471 92.4152 108.259 97.2228C105.046 102.03 100.83 106.084 95.9 109.106C90.9699 112.127 85.4435 114.043 79.7015 114.723C73.9595 115.402 68.1384 114.829 62.6393 113.042" stroke="#0A837F" stroke-width="10" stroke-linecap="round"/>
<path d="M10.3633 5.22266C10.3633 4.3112 10.4883 3.60156 10.7383 3.09375C10.9883 2.58333 11.4648 2.32812 12.168 2.32812C12.8711 2.32812 13.3477 2.58333 13.5977 3.09375C13.8477 3.60156 13.9727 4.3112 13.9727 5.22266C13.9727 6.13411 13.8477 6.84505 13.5977 7.35547C13.3477 7.86328 12.8711 8.11719 12.168 8.11719C11.4648 8.11719 10.9883 7.86328 10.7383 7.35547C10.4883 6.84505 10.3633 6.13411 10.3633 5.22266ZM11.0898 5.22266C11.0898 5.95182 11.1523 6.52344 11.2773 6.9375C11.4023 7.34896 11.6992 7.55469 12.168 7.55469C12.6367 7.55469 12.9336 7.34896 13.0586 6.9375C13.1836 6.52344 13.2461 5.95182 13.2461 5.22266C13.2461 4.49349 13.1836 3.92318 13.0586 3.51172C12.9336 3.09766 12.6367 2.89062 12.168 2.89062C11.6992 2.89062 11.4023 3.09766 11.2773 3.51172C11.1523 3.92318 11.0898 4.49349 11.0898 5.22266ZM14.7305 6.11328C14.6133 6.11328 14.5547 6.06771 14.5547 5.97656V5.70312C14.5547 5.61198 14.6133 5.56641 14.7305 5.56641H16.5977C16.7148 5.56641 16.7734 5.61198 16.7734 5.70312V5.97656C16.7734 6.06771 16.7148 6.11328 16.5977 6.11328H14.7305ZM17.6719 3.50391C17.638 3.42057 17.6693 3.36068 17.7656 3.32422C17.9661 3.2487 18.1562 3.1276 18.3359 2.96094C18.5156 2.79427 18.6576 2.64583 18.7617 2.51562C18.8372 2.42188 18.9102 2.375 18.9805 2.375H19.3125C19.4323 2.375 19.4922 2.43359 19.4922 2.55078V7.82422C19.4922 7.94141 19.4336 8 19.3164 8H18.9805C18.8633 8 18.8047 7.94141 18.8047 7.82422V3.54297C18.8047 3.46484 18.8073 3.38672 18.8125 3.30859H18.8047C18.724 3.41016 18.6055 3.51432 18.4492 3.62109C18.293 3.72786 18.1497 3.80599 18.0195 3.85547C17.9049 3.89974 17.8294 3.87891 17.793 3.79297L17.6719 3.50391ZM20.7852 7.36328C20.6862 7.23307 20.6745 7.13411 20.75 7.06641L20.9922 6.85156C21.0807 6.77344 21.1836 6.80599 21.3008 6.94922C21.3711 7.03516 21.4948 7.15365 21.6719 7.30469C21.849 7.45573 22.0794 7.53125 22.3633 7.53125C22.7357 7.53125 23.0156 7.41667 23.2031 7.1875C23.3932 6.95833 23.4883 6.65495 23.4883 6.27734C23.4883 5.92057 23.4076 5.63932 23.2461 5.43359C23.0846 5.22786 22.8424 5.125 22.5195 5.125C22.319 5.125 22.1523 5.14453 22.0195 5.18359C21.8867 5.22266 21.7487 5.30469 21.6055 5.42969C21.5065 5.51562 21.4023 5.55859 21.293 5.55859H21.1094C20.9922 5.55859 20.9336 5.5 20.9336 5.38281V2.62109C20.9336 2.50391 20.9922 2.44531 21.1094 2.44531H23.8047C23.9219 2.44531 23.9805 2.50391 23.9805 2.62109V2.91016C23.9805 3.02734 23.9219 3.08594 23.8047 3.08594H21.6211V4.62891C21.6211 4.70703 21.6185 4.78516 21.6133 4.86328H21.6289C21.7747 4.74089 21.9453 4.65625 22.1406 4.60938C22.3359 4.5625 22.5169 4.53906 22.6836 4.53906C23.168 4.53906 23.5508 4.70052 23.832 5.02344C24.1133 5.34635 24.2539 5.76953 24.2539 6.29297C24.2539 6.86328 24.0846 7.3099 23.7461 7.63281C23.4102 7.95573 22.9518 8.11719 22.3711 8.11719C21.9466 8.11719 21.6042 8.02995 21.3438 7.85547C21.0859 7.67839 20.8997 7.51432 20.7852 7.36328ZM27.4961 4.08984C27.4492 3.96224 27.4844 3.89844 27.6016 3.89844H28.0273C28.1133 3.89844 28.1719 3.94922 28.2031 4.05078L29.0234 6.62891C29.0469 6.69922 29.082 6.8099 29.1289 6.96094C29.1784 7.10938 29.2135 7.24219 29.2344 7.35938H29.2422C29.263 7.24219 29.2878 7.13672 29.3164 7.04297C29.3477 6.94661 29.3932 6.80859 29.4531 6.62891L30.2812 4.05078C30.3151 3.94922 30.3737 3.89844 30.457 3.89844H30.8828C31 3.89844 31.0352 3.96224 30.9883 4.08984L29.6719 7.76172C29.4245 8.45182 29.2031 8.9349 29.0078 9.21094C28.8125 9.48958 28.5208 9.62891 28.1328 9.62891C27.9297 9.62891 27.7682 9.59896 27.6484 9.53906C27.5938 9.51302 27.5755 9.47266 27.5938 9.41797L27.6953 9.10156C27.7135 9.04688 27.7487 9.03125 27.8008 9.05469C27.9076 9.09896 28.0104 9.12109 28.1094 9.12109C28.2917 9.12109 28.4401 9.02214 28.5547 8.82422C28.6693 8.62891 28.7604 8.43229 28.8281 8.23438L28.9062 8.00391L27.4961 4.08984ZM31.4258 5.94922C31.4258 5.30339 31.5872 4.78906 31.9102 4.40625C32.2331 4.02344 32.6953 3.83203 33.2969 3.83203C33.7969 3.83203 34.2109 4.00781 34.5391 4.35938C34.8698 4.70833 35.0352 5.26693 35.0352 6.03516C35.0352 6.15234 34.9818 6.21094 34.875 6.21094H32.1523C32.1966 6.71354 32.332 7.0638 32.5586 7.26172C32.7852 7.45703 33.0417 7.55469 33.3281 7.55469C33.6302 7.55469 33.862 7.50391 34.0234 7.40234C34.1849 7.30078 34.3034 7.20052 34.3789 7.10156C34.4622 6.99219 34.543 6.97135 34.6211 7.03906L34.8516 7.23828C34.9115 7.29036 34.9115 7.36198 34.8516 7.45312C34.8021 7.52865 34.6602 7.64974 34.4258 7.81641C34.194 7.98307 33.8281 8.06641 33.3281 8.06641C32.6771 8.06641 32.1966 7.875 31.8867 7.49219C31.5794 7.10938 31.4258 6.59505 31.4258 5.94922ZM32.1367 5.70312H34.3438C34.3333 5.33854 34.2396 5.01953 34.0625 4.74609C33.8854 4.47005 33.625 4.33203 33.2812 4.33203C32.9792 4.33203 32.7227 4.43359 32.5117 4.63672C32.3008 4.83724 32.1758 5.19271 32.1367 5.70312ZM35.7148 6.90625C35.7148 6.44271 35.931 6.10286 36.3633 5.88672C36.7982 5.67057 37.4466 5.54427 38.3086 5.50781V5.24219C38.3086 4.9974 38.2526 4.78646 38.1406 4.60938C38.0312 4.42969 37.8125 4.33984 37.4844 4.33984C37.276 4.33984 37.1094 4.36068 36.9844 4.40234C36.8594 4.44141 36.7448 4.49479 36.6406 4.5625C36.5391 4.6276 36.4414 4.71224 36.3477 4.81641C36.2773 4.89453 36.2109 4.89844 36.1484 4.82812L35.9453 4.59375C35.888 4.52865 35.9076 4.45052 36.0039 4.35938C36.1419 4.22917 36.276 4.13151 36.4062 4.06641C36.5365 4.0013 36.6979 3.94661 36.8906 3.90234C37.0859 3.85547 37.2839 3.83203 37.4844 3.83203C38.0286 3.83203 38.4167 3.97266 38.6484 4.25391C38.8802 4.53255 38.9961 4.91536 38.9961 5.40234V7.82422C38.9961 7.94141 38.9375 8 38.8203 8H38.4688C38.3672 8 38.3164 7.94141 38.3164 7.82422V7.63281H38.3086C38.1029 7.79427 37.901 7.90755 37.7031 7.97266C37.5078 8.03516 37.2891 8.06641 37.0469 8.06641C36.6198 8.06641 36.2904 7.96484 36.0586 7.76172C35.8294 7.55599 35.7148 7.27083 35.7148 6.90625ZM36.4258 6.92188C36.4258 7.08333 36.4596 7.21354 36.5273 7.3125C36.5951 7.40885 36.6888 7.47135 36.8086 7.5C36.9284 7.52604 37.0534 7.53906 37.1836 7.53906C37.3841 7.53906 37.5742 7.51953 37.7539 7.48047C37.9336 7.44141 38.1185 7.33854 38.3086 7.17188V6.01953C37.7826 6.05859 37.4076 6.10677 37.1836 6.16406C36.9596 6.21875 36.7773 6.3151 36.6367 6.45312C36.4961 6.58854 36.4258 6.74479 36.4258 6.92188ZM40.2852 8C40.168 8 40.1094 7.94141 40.1094 7.82422V4.07422C40.1094 3.95703 40.168 3.89844 40.2852 3.89844H40.6133C40.7305 3.89844 40.7891 3.95703 40.7891 4.07422V4.54297H40.8047C40.9297 4.30859 41.0768 4.13151 41.2461 4.01172C41.4154 3.89193 41.6263 3.83203 41.8789 3.83203C42.0456 3.83203 42.1628 3.84635 42.2305 3.875C42.2904 3.89844 42.3125 3.9375 42.2969 3.99219L42.207 4.3125C42.194 4.35938 42.1602 4.3776 42.1055 4.36719C42.0143 4.34896 41.9284 4.33984 41.8477 4.33984C41.543 4.33984 41.2917 4.47786 41.0938 4.75391C40.8958 5.02734 40.7969 5.40104 40.7969 5.875V7.82422C40.7969 7.94141 40.7383 8 40.6211 8H40.2852ZM42.7695 7.61719C42.6888 7.54167 42.6719 7.47135 42.7188 7.40625L42.8945 7.16016C42.9518 7.08203 43.0365 7.08594 43.1484 7.17188C43.3021 7.28906 43.4727 7.38281 43.6602 7.45312C43.8503 7.52344 44.0664 7.55859 44.3086 7.55859C44.4518 7.55859 44.5794 7.54167 44.6914 7.50781C44.8034 7.47135 44.901 7.40495 44.9844 7.30859C45.0703 7.21224 45.1133 7.08333 45.1133 6.92188C45.1133 6.82812 45.0924 6.73958 45.0508 6.65625C45.0117 6.57292 44.9492 6.50651 44.8633 6.45703C44.7799 6.40495 44.6979 6.36458 44.6172 6.33594C44.4844 6.28646 44.3516 6.24609 44.2188 6.21484C44.0885 6.18099 43.9167 6.13021 43.7031 6.0625C43.5599 6.01823 43.4245 5.95573 43.2969 5.875C43.1693 5.79167 43.0573 5.67969 42.9609 5.53906C42.8672 5.39844 42.8203 5.20443 42.8203 4.95703C42.8203 4.70443 42.8971 4.48698 43.0508 4.30469C43.2044 4.1224 43.3971 3.9987 43.6289 3.93359C43.8607 3.86589 44.0859 3.83203 44.3047 3.83203C44.6276 3.83203 44.8867 3.86979 45.082 3.94531C45.2799 4.01823 45.4505 4.10547 45.5938 4.20703C45.6771 4.26693 45.6888 4.33594 45.6289 4.41406L45.4531 4.64844C45.3984 4.72396 45.3138 4.72135 45.1992 4.64062C45.1029 4.57292 44.9661 4.50911 44.7891 4.44922C44.612 4.38932 44.457 4.35938 44.3242 4.35938C44.1602 4.35938 44.0195 4.3776 43.9023 4.41406C43.7852 4.45052 43.6901 4.51302 43.6172 4.60156C43.5443 4.6901 43.5078 4.79427 43.5078 4.91406C43.5078 5.00521 43.5221 5.08724 43.5508 5.16016C43.5794 5.23047 43.6328 5.29557 43.7109 5.35547C43.7891 5.41536 43.8984 5.46354 44.0391 5.5C44.2578 5.55729 44.457 5.60938 44.6367 5.65625C44.819 5.70312 44.9831 5.76042 45.1289 5.82812C45.319 5.91667 45.4648 6.01432 45.5664 6.12109C45.6706 6.22786 45.7422 6.34375 45.7812 6.46875C45.8203 6.59115 45.8398 6.72786 45.8398 6.87891C45.8398 7.15755 45.7565 7.39323 45.5898 7.58594C45.4258 7.77865 45.2422 7.90755 45.0391 7.97266C44.8359 8.03516 44.5911 8.06641 44.3047 8.06641C43.9167 8.06641 43.5833 8.01172 43.3047 7.90234C43.0286 7.79036 42.8503 7.69531 42.7695 7.61719Z" fill="#FF3D00"/>
<circle cx="3.5" cy="5.5" r="3.5" fill="#FF3D00"/>
<path d="M10.6797 18.5039C10.6458 18.4206 10.6771 18.3607 10.7734 18.3242C10.974 18.2487 11.1641 18.1276 11.3438 17.9609C11.5234 17.7943 11.6654 17.6458 11.7695 17.5156C11.8451 17.4219 11.918 17.375 11.9883 17.375H12.3203C12.4401 17.375 12.5 17.4336 12.5 17.5508V22.8242C12.5 22.9414 12.4414 23 12.3242 23H11.9883C11.8711 23 11.8125 22.9414 11.8125 22.8242V18.543C11.8125 18.4648 11.8151 18.3867 11.8203 18.3086H11.8125C11.7318 18.4102 11.6133 18.5143 11.457 18.6211C11.3008 18.7279 11.1576 18.806 11.0273 18.8555C10.9128 18.8997 10.8372 18.8789 10.8008 18.793L10.6797 18.5039ZM13.5938 20.3789C13.5938 19.2331 13.793 18.4388 14.1914 17.9961C14.5898 17.5508 15.0742 17.3281 15.6445 17.3281C15.9701 17.3281 16.2305 17.3698 16.4258 17.4531C16.6211 17.5365 16.7891 17.6432 16.9297 17.7734C17.0391 17.875 17.0638 17.9596 17.0039 18.0273L16.8203 18.2422C16.7474 18.3255 16.6523 18.3177 16.5352 18.2188C16.4388 18.1354 16.3229 18.0638 16.1875 18.0039C16.0521 17.944 15.8594 17.9141 15.6094 17.9141C15.2578 17.9141 14.9518 18.0898 14.6914 18.4414C14.431 18.793 14.3008 19.3451 14.3008 20.0977H14.3086C14.4258 19.9284 14.5938 19.7852 14.8125 19.668C15.0339 19.5482 15.3125 19.4883 15.6484 19.4883C16.0651 19.4883 16.431 19.6315 16.7461 19.918C17.0612 20.2018 17.2188 20.6302 17.2188 21.2031C17.2188 21.7708 17.0677 22.2318 16.7656 22.5859C16.4661 22.9401 16.0221 23.1172 15.4336 23.1172C14.819 23.1172 14.3581 22.8737 14.0508 22.3867C13.7461 21.8971 13.5938 21.2279 13.5938 20.3789ZM14.4336 21.2539C14.4336 21.5768 14.5221 21.8711 14.6992 22.1367C14.8789 22.3997 15.1263 22.5312 15.4414 22.5312C15.7669 22.5312 16.0169 22.4089 16.1914 22.1641C16.3659 21.9193 16.4531 21.6068 16.4531 21.2266C16.4531 20.849 16.3646 20.5651 16.1875 20.375C16.0104 20.1823 15.7891 20.0859 15.5234 20.0859C15.1797 20.0859 14.9115 20.1914 14.7188 20.4023C14.5286 20.6133 14.4336 20.8971 14.4336 21.2539ZM17.9648 21.1133C17.8477 21.1133 17.7891 21.0677 17.7891 20.9766V20.7031C17.7891 20.612 17.8477 20.5664 17.9648 20.5664H19.832C19.9492 20.5664 20.0078 20.612 20.0078 20.7031V20.9766C20.0078 21.0677 19.9492 21.1133 19.832 21.1133H17.9648ZM20.5859 20.3789C20.5859 19.2331 20.7852 18.4388 21.1836 17.9961C21.582 17.5508 22.0664 17.3281 22.6367 17.3281C22.9622 17.3281 23.2227 17.3698 23.418 17.4531C23.6133 17.5365 23.7812 17.6432 23.9219 17.7734C24.0312 17.875 24.056 17.9596 23.9961 18.0273L23.8125 18.2422C23.7396 18.3255 23.6445 18.3177 23.5273 18.2188C23.431 18.1354 23.3151 18.0638 23.1797 18.0039C23.0443 17.944 22.8516 17.9141 22.6016 17.9141C22.25 17.9141 21.944 18.0898 21.6836 18.4414C21.4232 18.793 21.293 19.3451 21.293 20.0977H21.3008C21.418 19.9284 21.5859 19.7852 21.8047 19.668C22.026 19.5482 22.3047 19.4883 22.6406 19.4883C23.0573 19.4883 23.4232 19.6315 23.7383 19.918C24.0534 20.2018 24.2109 20.6302 24.2109 21.2031C24.2109 21.7708 24.0599 22.2318 23.7578 22.5859C23.4583 22.9401 23.0143 23.1172 22.4258 23.1172C21.8112 23.1172 21.3503 22.8737 21.043 22.3867C20.7383 21.8971 20.5859 21.2279 20.5859 20.3789ZM21.4258 21.2539C21.4258 21.5768 21.5143 21.8711 21.6914 22.1367C21.8711 22.3997 22.1185 22.5312 22.4336 22.5312C22.7591 22.5312 23.0091 22.4089 23.1836 22.1641C23.3581 21.9193 23.4453 21.6068 23.4453 21.2266C23.4453 20.849 23.3568 20.5651 23.1797 20.375C23.0026 20.1823 22.7812 20.0859 22.5156 20.0859C22.1719 20.0859 21.9036 20.1914 21.7109 20.4023C21.5208 20.6133 21.4258 20.8971 21.4258 21.2539ZM25.1484 23C25.0052 23 24.9336 22.9414 24.9336 22.8242V22.6367C24.9336 22.5352 24.9766 22.4414 25.0625 22.3555L26.5938 20.8125C27.0469 20.3568 27.3438 20.0052 27.4844 19.7578C27.6276 19.5078 27.6992 19.2201 27.6992 18.8945C27.6992 18.6211 27.6185 18.3893 27.457 18.1992C27.2982 18.0091 27.056 17.9141 26.7305 17.9141C26.4388 17.9141 26.1966 17.9883 26.0039 18.1367C25.8112 18.2852 25.6719 18.5339 25.5859 18.8828C25.5495 19.0312 25.4727 19.0885 25.3555 19.0547L25.0508 18.9648C24.9701 18.9414 24.9505 18.8307 24.9922 18.6328C25.0677 18.2917 25.25 17.9896 25.5391 17.7266C25.8307 17.4609 26.2174 17.3281 26.6992 17.3281C27.3112 17.3281 27.7578 17.4818 28.0391 17.7891C28.3229 18.0964 28.4648 18.4727 28.4648 18.918C28.4648 19.3529 28.3477 19.7279 28.1133 20.043C27.8815 20.3581 27.5625 20.7122 27.1562 21.1055L25.8711 22.3516V22.3672C25.9414 22.362 26.0456 22.3594 26.1836 22.3594H28.3125C28.4557 22.3594 28.5273 22.418 28.5273 22.5352V22.8242C28.5273 22.9414 28.4557 23 28.3125 23H25.1484ZM31.832 19.0898C31.7852 18.9622 31.8203 18.8984 31.9375 18.8984H32.3633C32.4492 18.8984 32.5078 18.9492 32.5391 19.0508L33.3594 21.6289C33.3828 21.6992 33.418 21.8099 33.4648 21.9609C33.5143 22.1094 33.5495 22.2422 33.5703 22.3594H33.5781C33.599 22.2422 33.6237 22.1367 33.6523 22.043C33.6836 21.9466 33.7292 21.8086 33.7891 21.6289L34.6172 19.0508C34.651 18.9492 34.7096 18.8984 34.793 18.8984H35.2188C35.3359 18.8984 35.3711 18.9622 35.3242 19.0898L34.0078 22.7617C33.7604 23.4518 33.5391 23.9349 33.3438 24.2109C33.1484 24.4896 32.8568 24.6289 32.4688 24.6289C32.2656 24.6289 32.1042 24.599 31.9844 24.5391C31.9297 24.513 31.9115 24.4727 31.9297 24.418L32.0312 24.1016C32.0495 24.0469 32.0846 24.0312 32.1367 24.0547C32.2435 24.099 32.3464 24.1211 32.4453 24.1211C32.6276 24.1211 32.776 24.0221 32.8906 23.8242C33.0052 23.6289 33.0964 23.4323 33.1641 23.2344L33.2422 23.0039L31.832 19.0898ZM35.7617 20.9492C35.7617 20.3034 35.9232 19.7891 36.2461 19.4062C36.569 19.0234 37.0312 18.832 37.6328 18.832C38.1328 18.832 38.5469 19.0078 38.875 19.3594C39.2057 19.7083 39.3711 20.2669 39.3711 21.0352C39.3711 21.1523 39.3177 21.2109 39.2109 21.2109H36.4883C36.5326 21.7135 36.668 22.0638 36.8945 22.2617C37.1211 22.457 37.3776 22.5547 37.6641 22.5547C37.9661 22.5547 38.1979 22.5039 38.3594 22.4023C38.5208 22.3008 38.6393 22.2005 38.7148 22.1016C38.7982 21.9922 38.8789 21.9714 38.957 22.0391L39.1875 22.2383C39.2474 22.2904 39.2474 22.362 39.1875 22.4531C39.138 22.5286 38.9961 22.6497 38.7617 22.8164C38.5299 22.9831 38.1641 23.0664 37.6641 23.0664C37.013 23.0664 36.5326 22.875 36.2227 22.4922C35.9154 22.1094 35.7617 21.5951 35.7617 20.9492ZM36.4727 20.7031H38.6797C38.6693 20.3385 38.5755 20.0195 38.3984 19.7461C38.2214 19.4701 37.9609 19.332 37.6172 19.332C37.3151 19.332 37.0586 19.4336 36.8477 19.6367C36.6367 19.8372 36.5117 20.1927 36.4727 20.7031ZM40.0508 21.9062C40.0508 21.4427 40.2669 21.1029 40.6992 20.8867C41.1341 20.6706 41.7826 20.5443 42.6445 20.5078V20.2422C42.6445 19.9974 42.5885 19.7865 42.4766 19.6094C42.3672 19.4297 42.1484 19.3398 41.8203 19.3398C41.612 19.3398 41.4453 19.3607 41.3203 19.4023C41.1953 19.4414 41.0807 19.4948 40.9766 19.5625C40.875 19.6276 40.7773 19.7122 40.6836 19.8164C40.6133 19.8945 40.5469 19.8984 40.4844 19.8281L40.2812 19.5938C40.224 19.5286 40.2435 19.4505 40.3398 19.3594C40.4779 19.2292 40.612 19.1315 40.7422 19.0664C40.8724 19.0013 41.0339 18.9466 41.2266 18.9023C41.4219 18.8555 41.6198 18.832 41.8203 18.832C42.3646 18.832 42.7526 18.9727 42.9844 19.2539C43.2161 19.5326 43.332 19.9154 43.332 20.4023V22.8242C43.332 22.9414 43.2734 23 43.1562 23H42.8047C42.7031 23 42.6523 22.9414 42.6523 22.8242V22.6328H42.6445C42.4388 22.7943 42.237 22.9076 42.0391 22.9727C41.8438 23.0352 41.625 23.0664 41.3828 23.0664C40.9557 23.0664 40.6263 22.9648 40.3945 22.7617C40.1654 22.556 40.0508 22.2708 40.0508 21.9062ZM40.7617 21.9219C40.7617 22.0833 40.7956 22.2135 40.8633 22.3125C40.931 22.4089 41.0247 22.4714 41.1445 22.5C41.2643 22.526 41.3893 22.5391 41.5195 22.5391C41.7201 22.5391 41.9102 22.5195 42.0898 22.4805C42.2695 22.4414 42.4544 22.3385 42.6445 22.1719V21.0195C42.1185 21.0586 41.7435 21.1068 41.5195 21.1641C41.2956 21.2188 41.1133 21.3151 40.9727 21.4531C40.832 21.5885 40.7617 21.7448 40.7617 21.9219ZM44.6211 23C44.5039 23 44.4453 22.9414 44.4453 22.8242V19.0742C44.4453 18.957 44.5039 18.8984 44.6211 18.8984H44.9492C45.0664 18.8984 45.125 18.957 45.125 19.0742V19.543H45.1406C45.2656 19.3086 45.4128 19.1315 45.582 19.0117C45.7513 18.8919 45.9622 18.832 46.2148 18.832C46.3815 18.832 46.4987 18.8464 46.5664 18.875C46.6263 18.8984 46.6484 18.9375 46.6328 18.9922L46.543 19.3125C46.5299 19.3594 46.4961 19.3776 46.4414 19.3672C46.3503 19.349 46.2643 19.3398 46.1836 19.3398C45.8789 19.3398 45.6276 19.4779 45.4297 19.7539C45.2318 20.0273 45.1328 20.401 45.1328 20.875V22.8242C45.1328 22.9414 45.0742 23 44.957 23H44.6211ZM47.1055 22.6172C47.0247 22.5417 47.0078 22.4714 47.0547 22.4062L47.2305 22.1602C47.2878 22.082 47.3724 22.0859 47.4844 22.1719C47.638 22.2891 47.8086 22.3828 47.9961 22.4531C48.1862 22.5234 48.4023 22.5586 48.6445 22.5586C48.7878 22.5586 48.9154 22.5417 49.0273 22.5078C49.1393 22.4714 49.237 22.4049 49.3203 22.3086C49.4062 22.2122 49.4492 22.0833 49.4492 21.9219C49.4492 21.8281 49.4284 21.7396 49.3867 21.6562C49.3477 21.5729 49.2852 21.5065 49.1992 21.457C49.1159 21.4049 49.0339 21.3646 48.9531 21.3359C48.8203 21.2865 48.6875 21.2461 48.5547 21.2148C48.4245 21.181 48.2526 21.1302 48.0391 21.0625C47.8958 21.0182 47.7604 20.9557 47.6328 20.875C47.5052 20.7917 47.3932 20.6797 47.2969 20.5391C47.2031 20.3984 47.1562 20.2044 47.1562 19.957C47.1562 19.7044 47.2331 19.487 47.3867 19.3047C47.5404 19.1224 47.7331 18.9987 47.9648 18.9336C48.1966 18.8659 48.4219 18.832 48.6406 18.832C48.9635 18.832 49.2227 18.8698 49.418 18.9453C49.6159 19.0182 49.7865 19.1055 49.9297 19.207C50.013 19.2669 50.0247 19.3359 49.9648 19.4141L49.7891 19.6484C49.7344 19.724 49.6497 19.7214 49.5352 19.6406C49.4388 19.5729 49.3021 19.5091 49.125 19.4492C48.9479 19.3893 48.793 19.3594 48.6602 19.3594C48.4961 19.3594 48.3555 19.3776 48.2383 19.4141C48.1211 19.4505 48.026 19.513 47.9531 19.6016C47.8802 19.6901 47.8438 19.7943 47.8438 19.9141C47.8438 20.0052 47.8581 20.0872 47.8867 20.1602C47.9154 20.2305 47.9688 20.2956 48.0469 20.3555C48.125 20.4154 48.2344 20.4635 48.375 20.5C48.5938 20.5573 48.793 20.6094 48.9727 20.6562C49.1549 20.7031 49.319 20.7604 49.4648 20.8281C49.6549 20.9167 49.8008 21.0143 49.9023 21.1211C50.0065 21.2279 50.0781 21.3438 50.1172 21.4688C50.1562 21.5911 50.1758 21.7279 50.1758 21.8789C50.1758 22.1576 50.0924 22.3932 49.9258 22.5859C49.7617 22.7786 49.5781 22.9076 49.375 22.9727C49.1719 23.0352 48.9271 23.0664 48.6406 23.0664C48.2526 23.0664 47.9193 23.0117 47.6406 22.9023C47.3646 22.7904 47.1862 22.6953 47.1055 22.6172Z" fill="#FFBC11"/>
<circle cx="3.5" cy="19.5" r="3.5" fill="#FFBC11"/>
<path d="M10.3594 35.3789C10.3594 34.2331 10.5586 33.4388 10.957 32.9961C11.3555 32.5508 11.8398 32.3281 12.4102 32.3281C12.7357 32.3281 12.9961 32.3698 13.1914 32.4531C13.3867 32.5365 13.5547 32.6432 13.6953 32.7734C13.8047 32.875 13.8294 32.9596 13.7695 33.0273L13.5859 33.2422C13.513 33.3255 13.418 33.3177 13.3008 33.2188C13.2044 33.1354 13.0885 33.0638 12.9531 33.0039C12.8177 32.944 12.625 32.9141 12.375 32.9141C12.0234 32.9141 11.7174 33.0898 11.457 33.4414C11.1966 33.793 11.0664 34.3451 11.0664 35.0977H11.0742C11.1914 34.9284 11.3594 34.7852 11.5781 34.668C11.7995 34.5482 12.0781 34.4883 12.4141 34.4883C12.8307 34.4883 13.1966 34.6315 13.5117 34.918C13.8268 35.2018 13.9844 35.6302 13.9844 36.2031C13.9844 36.7708 13.8333 37.2318 13.5312 37.5859C13.2318 37.9401 12.7878 38.1172 12.1992 38.1172C11.5846 38.1172 11.1237 37.8737 10.8164 37.3867C10.5117 36.8971 10.3594 36.2279 10.3594 35.3789ZM11.1992 36.2539C11.1992 36.5768 11.2878 36.8711 11.4648 37.1367C11.6445 37.3997 11.8919 37.5312 12.207 37.5312C12.5326 37.5312 12.7826 37.4089 12.957 37.1641C13.1315 36.9193 13.2188 36.6068 13.2188 36.2266C13.2188 35.849 13.1302 35.5651 12.9531 35.375C12.776 35.1823 12.5547 35.0859 12.2891 35.0859C11.9453 35.0859 11.6771 35.1914 11.4844 35.4023C11.2943 35.6133 11.1992 35.8971 11.1992 36.2539ZM14.8555 37.4219C14.7513 37.3021 14.7305 37.2044 14.793 37.1289L14.9961 36.8828C15.0846 36.776 15.1901 36.7995 15.3125 36.9531C15.4479 37.1224 15.6146 37.2617 15.8125 37.3711C16.013 37.4779 16.2227 37.5312 16.4414 37.5312C16.8711 37.5312 17.1758 37.4245 17.3555 37.2109C17.5352 36.9974 17.625 36.7122 17.625 36.3555C17.625 35.9779 17.5052 35.7044 17.2656 35.5352C17.026 35.3659 16.7578 35.2812 16.4609 35.2812H16.1172C16 35.2812 15.9414 35.2383 15.9414 35.1523V34.8633C15.9414 34.7721 16 34.7266 16.1172 34.7266H16.3945C16.681 34.7266 16.9258 34.6328 17.1289 34.4453C17.3346 34.2578 17.4375 34.0026 17.4375 33.6797C17.4375 33.4557 17.3555 33.2721 17.1914 33.1289C17.0273 32.9857 16.7969 32.9141 16.5 32.9141C16.2214 32.9141 15.9935 32.9779 15.8164 33.1055C15.6393 33.2331 15.5143 33.3438 15.4414 33.4375C15.3451 33.5625 15.2513 33.582 15.1602 33.4961L14.9297 33.2734C14.862 33.2083 14.8919 33.1003 15.0195 32.9492C15.1549 32.7904 15.349 32.6471 15.6016 32.5195C15.8568 32.3919 16.1602 32.3281 16.5117 32.3281C17.0508 32.3281 17.4622 32.4583 17.7461 32.7188C18.0299 32.9792 18.1719 33.3164 18.1719 33.7305C18.1719 34.0586 18.0703 34.3333 17.8672 34.5547C17.6667 34.7734 17.4466 34.9089 17.207 34.9609V34.9766C17.4857 35.0156 17.7526 35.1667 18.0078 35.4297C18.263 35.6927 18.3906 36.0065 18.3906 36.3711C18.3906 36.9128 18.2331 37.3398 17.918 37.6523C17.6055 37.9622 17.1081 38.1172 16.4258 38.1172C16.0299 38.1172 15.7031 38.0404 15.4453 37.8867C15.1875 37.7305 14.9909 37.5755 14.8555 37.4219ZM19.1602 35.4023C19.043 35.4023 18.9844 35.3568 18.9844 35.2656V35.0703C18.9844 34.9792 19.043 34.9336 19.1602 34.9336H20.9336V33.1562C20.9336 33.0391 20.9792 32.9805 21.0703 32.9805H21.2656C21.3568 32.9805 21.4023 33.0391 21.4023 33.1562V34.9336H23.1836C23.3008 34.9336 23.3594 34.9792 23.3594 35.0703V35.2656C23.3594 35.3568 23.3008 35.4023 23.1836 35.4023H21.4023V37.1797C21.4023 37.2969 21.3568 37.3555 21.2656 37.3555H21.0703C20.9792 37.3555 20.9336 37.2969 20.9336 37.1797V35.4023H19.1602Z" fill="#0A837F"/>
<circle cx="3.5" cy="34.5" r="3.5" fill="#0A837F"/>
</svg>
